<svg xmlns="http://www.w3.org/2000/svg" width="250" height="240" viewBox="0 0 25 24"><title>  icon_cart_m</title><desc>shopping cart</desc><g stroke-width="1" fill="none" fill-rule="evenodd" stroke-linecap="round" stroke-linejoin="round" stroke="#FFFFFF" class="cart-icon-path"><g><polygon points="21.9 12.6 23.6 4.4 4.8 4.4 6.6 12.6"/><path d="M11.2 20.3C11.2 21.2 10.5 21.9 9.6 21.9 8.7 21.9 8 21.2 8 20.3 8 19.4 8.7 18.6 9.6 18.6 10.5 18.6 11.2 19.4 11.2 20.3Z"/><path d="M20.5 20.3C20.5 21.2 19.8 21.9 18.9 21.9 18 21.9 17.3 21.2 17.3 20.3 17.3 19.4 18 18.6 18.9 18.6 19.8 18.6 20.5 19.4 20.5 20.3Z"/><polyline points="21.1 16.4 7.4 16.4 4 0.4 0.4 0.4"/><path d="M14.2 4.4L14.2 12.6"/><path d="M18.9 4.4L18 12.6"/><path d="M9.5 4.4L10.5 12.6"/><path d="M5.7 8.4L22.8 8.4"/></g></g></svg>
